<?xml version="1.0" encoding="UTF-8"?>
<svg width="700pt" height="700pt" version="1.1" viewBox="0 0 700 700" xmlns="http://www.w3.org/2000/svg">
 <path d="m430.39 279.87v27.641l-38.398-25.422h31.934l0.003906-64.254-80.637-48.5-74.125 48.883v20.043l-38.668-25.504-80.648 48.5v64.242h73.949v36.395h80.578v28.164h212.34v-110.19zm-132.99-46.461 46.578-30.715 51.711 31.102v20.059h-84.109l-7.1484-4.7148-7.0312 4.2305zm79.398 48.68-11.691 7.0586-10.707-7.0586zm-198.71 15.176v-20.043l51.723-31.102 37.98 25.059-43.371 26.086zm126.29 36.398h-52.348v-20.062l51.711-31.102 34.59 22.816-33.953 20.5zm126.01 28.16h-97.781v-20.07l51.449-31.074 46.336 30.688zm58.098 0h-29.863v-53.723h29.863z"/>
</svg>
