<?xml version="1.0" encoding="UTF-8"?>
<svg width="1200pt" height="1200pt" version="1.1" viewBox="0 0 1200 1200" xmlns="http://www.w3.org/2000/svg">
 <g>
  <path d="m750 900c-50 0-100-50-150-50s-100 50-150 50-100-50-150-50c-32.5 0-67.5 22.5-100 37.5v100c32.5-15 67.5-37.5 100-37.5 50 0 100 50 150 50s100-50 150-50 100 50 150 50 100-50 150-50c32.5 0 67.5 22.5 100 37.5v-100c-32.5-15-67.5-37.5-100-37.5-50 0-100 50-150 50z"/>
  <path d="m900 650c-50 0-100 50-150 50s-100-50-150-50-100 50-150 50-100-50-150-50c-32.5 0-67.5 22.5-100 37.5v100c32.5-15 67.5-37.5 100-37.5 50 0 100 50 150 50s100-50 150-50 100 50 150 50 100-50 150-50c32.5 0 67.5 22.5 100 37.5v-100c-32.5-15-67.5-37.5-100-37.5z"/>
  <path d="m725 475c0-70-125-275-125-275s-125 205-125 275 55 125 125 125 125-55 125-125z"/>
 </g>
</svg>
